<?xml version="1.0" encoding="utf-8"?>
<!-- Generator: Adobe Illustrator 19.1.0, SVG Export Plug-In . SVG Version: 6.00 Build 0)  -->
<svg version="1.1" id="Layer_1" xmlns="http://www.w3.org/2000/svg" xmlns:xlink="http://www.w3.org/1999/xlink" x="0px" y="0px"
	 viewBox="0 0 149.8 39.8" enable-background="new 0 0 149.8 39.8" xml:space="preserve">
<g>
	<path fill="#0055A4" d="M5.7,20.8c0,3.6,1.3,5.3,4,5.3c2.5,0,4-1.6,4-4.8V9.8h4.3v11.5c0,6-3.3,9.2-8.4,9.2c-5.2,0-8.5-3.2-8.5-9.2
		V9.8h4.7V20.8z"/>
	<polygon fill="#0055A4" points="37.5,14 31.1,14 31.1,9.8 48.7,9.8 48.7,14 42.3,14 42.3,29.9 37.5,29.9 	"/>
	<path fill="#0055A4" d="M66.3,23.5l2.6-6.2V9.3L58.8,29.9h4.8l1.3-2.9h4v-3.5H66.3z M68.9,17.3L68.9,17.3l2.6,6.2h-2.6v3.5H73
		l1.3,2.9h5l-10-20.7H69l-0.1,0.2V17.3z"/>
	<rect x="93" y="9.6" fill="#EC1C24" width="56" height="10"/>
	<rect x="93" y="23.6" fill="#0055A4" width="56" height="6"/>
	<path fill="#0055A4" d="M120.9,0.9c-6.7,0-12.6,3.5-16,8.8h4.9c2.8-3,6.7-4.9,11.1-4.9c8.3,0,15.1,6.8,15.1,15.1
		c0,8.3-6.7,15.1-15.1,15.1c-4.5,0-8.5-2-11.3-5.1h-4.8c3.3,5.4,9.3,9,16.1,9c10.5,0,19-8.5,19-19C139.9,9.4,131.5,0.9,120.9,0.9"/>
	<path fill="#0055A4" d="M144.7,32h0.3c0,0.2,0,0.3,0.1,0.3c0.1,0.1,0.2,0.1,0.4,0.1c0.1,0,0.2,0,0.3-0.1c0.1,0,0.1-0.1,0.1-0.2
		c0-0.2-0.2-0.3-0.5-0.3h0c-0.2-0.1-0.4-0.2-0.5-0.2c-0.1,0-0.1-0.2-0.1-0.3c0-0.2,0-0.3,0.2-0.4c0.2-0.1,0.3-0.2,0.5-0.2
		c0.2,0,0.4,0.1,0.5,0.2c0.2,0.1,0.2,0.2,0.2,0.4h-0.2c0-0.1-0.1-0.2-0.2-0.3c-0.1-0.1-0.2-0.1-0.3-0.1c-0.1,0-0.2,0-0.3,0.1
		c-0.1,0.1-0.1,0.1-0.1,0.2c0,0.2,0.2,0.3,0.5,0.3h0.1h0c0.2,0.1,0.3,0.1,0.4,0.2c0,0,0.1,0.1,0.1,0.2c0,0,0,0.1,0,0.2
		c0,0.2-0.1,0.3-0.2,0.5c-0.2,0.1-0.3,0.2-0.5,0.2c-0.2,0-0.4-0.1-0.6-0.2C144.7,32.4,144.7,32.3,144.7,32"/>
	<path fill="#0055A4" d="M146.7,31v1.7h-0.2v-1.9h0.4l0.5,1.5c0,0,0,0.1,0,0.1v0.1c0,0,0-0.1,0-0.1c0,0,0-0.1,0-0.1l0.5-1.5h0.4v1.9
		h-0.2V31c0,0,0,0,0,0.1s0,0.1,0,0.1l-0.5,1.5h-0.2l-0.5-1.5C146.7,31.2,146.7,31.1,146.7,31C146.7,31.1,146.7,31.1,146.7,31"/>
</g>
</svg>
